#!OML:ASF E:\inclinewalkrobotboard\Project 1\Capture day 1\Session 1\subject1.ASF
:FULLY-SPECIFIED
:DEGREES
273
root 11.7077 17.3263 11.524 -170.238 1.95408 171.336
lowerback -3.36707 3.00303 -3.16069
upperback 3.06736 4.19207 1.1979
thorax 4.74767 1.9714 3.31215
lowerneck -6.98177 0.36755 -3.71841
upperneck 29.8225 -1.88943 1.19033
head 10.7433 -2.07883 0.689127
rclavicle 8.74653e-015 3.18055e-015
rhumerus -7.41957 -26.2318 -81.081
rradius 14.2055
rwrist 38.5711
rhand -8.375 -37.8703
rfingers 7.12502
rthumb 17.548 -67.0983
lclavicle 8.74653e-015 3.18055e-015
lhumerus -44.8322 24.9961 56.0295
lradius 10.9987
lwrist -44.799
lhand -22.0981 -23.6342
lfingers 7.12502
lthumb 4.31404 6.3019
rfemur -1.82495 9.82732 7.96914
rtibia 10.7504
rfoot -19.9415 -7.23698
rtoes -27.3307
lfemur -26.4401 -8.69696 -7.30841
ltibia 11.8546
lfoot -11.0599 6.9419
ltoes -59.3028
274
root 11.6319 17.2905 11.3882 -170.292 2.28233 171.69
lowerback -3.57693 3.2419 -3.19326
upperback 3.0875 4.52824 0.930599
thorax 4.88103 2.13644 3.09032
lowerneck -7.21768 0.423483 -3.75496
upperneck 29.9794 -1.85367 1.42453
head 10.8505 -2.03743 0.781828
rclavicle -3.69739e-014 2.22639e-014
rhumerus -7.27054 -25.525 -81.6295
rradius 14.2569
rwrist 38.7689
rhand -8.17752 -37.4421
rfingers 7.12502
rthumb 17.738 -66.6531
lclavicle -3.69739e-014 2.22639e-014
lhumerus -44.5899 23.8341 56.738
lradius 11.2053
lwrist -43.2449
lhand -22.2412 -24.1681
lfingers 7.12502
lthumb 4.17588 5.7707
rfemur -1.42531 9.89934 8.14657
rtibia 10.9758
rfoot -20.4255 -7.12714
rtoes -27.8514
lfemur -26.8355 -8.72818 -6.94046
ltibia 12.0258
lfoot -10.9944 7.21028
ltoes -58.9976
275
root 11.5503 17.2467 11.2447 -170.297 2.87737 172.122
lowerback -3.88218 3.54862 -3.26601
upperback 3.09425 4.96163 0.663264
thorax 5.04777 2.34736 2.90615
lowerneck -7.57852 0.486863 -3.67894
upperneck 30.3219 -1.82307 1.54884
head 11.0531 -2.00745 0.811897
rclavicle 2.50469e-014 0
rhumerus -7.08375 -24.6893 -82.1539
rradius 14.2421
rwrist 38.3777
rhand -6.51628 -37.3736
rfingers 7.12502
rthumb 19.336 -66.4323
lclavicle 2.50469e-014 0
lhumerus -44.4053 23.0271 57.1913
lradius 11.4232
lwrist -41.9904
lhand -22.1179 -25.1013
lfingers 7.12502
lthumb 4.2949 4.83515
rfemur -1.14465 9.94428 8.335
rtibia 11.288
rfoot -20.8833 -6.90872
rtoes -29.1672
lfemur -26.9834 -8.5586 -6.5689
ltibia 12.0074
lfoot -11.0003 7.66147
ltoes -58.6356
276
root 11.4438 17.2002 11.0949 -170.251 2.76776 172.44
lowerback -4.20481 3.60299 -3.14358
upperback 3.0401 5.04772 0.347292
thorax 5.20706 2.39477 2.54054
lowerneck -7.78733 0.543765 -3.67403
upperneck 30.6146 -1.85354 1.82632
head 11.211 -1.99969 0.90465
rclavicle 1.47101e-014 -1.43125e-014
rhumerus -6.87907 -24.3314 -82.5398
rradius 14.1045
rwrist 38.2882
rhand -5.25884 -37.2072
rfingers 7.12502
rthumb 20.5447 -66.1401
lclavicle 1.47101e-014 -1.43125e-014
lhumerus -44.2209 21.9578 57.7738
lradius 11.6888
lwrist -40.489
lhand -21.7417 -25.5821
lfingers 7.12502
lthumb 4.65821 4.34666
rfemur -0.517074 9.42263 8.33744
rtibia 11.2443
rfoot -21.2826 -6.82486
rtoes -29.8877
lfemur -27.5477 -8.91311 -6.47571
ltibia 12.4667
lfoot -11.1376 7.80034
ltoes -58.4364
277
root 11.3629 17.1649 10.9466 -170.624 4.04146 173.113
lowerback -4.01691 4.08325 -3.2781
upperback 3.02057 5.70215 0.142602
thorax 5.04739 2.7233 2.43499
lowerneck -7.75588 0.645366 -3.76028
upperneck 30.7463 -1.86604 2.2964
head 11.2595 -1.97275 1.08898
rclavicle 3.49861e-014 -1.90833e-014
rhumerus -6.78331 -23.6454 -82.9434
rradius 14.061
rwrist 37.9269
rhand -6.87809 -36.227
rfingers 7.12502
rthumb 18.9881 -65.3202
lclavicle 3.49861e-014 -1.90833e-014
lhumerus -44.1165 20.5003 58.4915
lradius 12.0062
lwrist -38.7522
lhand -21.41 -25.5775
lfingers 7.12502
lthumb 4.97849 4.34397
rfemur -0.0145288 10.117 8.7962
rtibia 11.4231
rfoot -21.536 -6.45413
rtoes -30.9495
lfemur -26.7106 -8.33254 -5.99058
ltibia 12.3551
lfoot -11.6555 8.25476
ltoes -58.2952
278
root 11.2654 17.1235 10.7955 -170.684 4.53096 173.547
lowerback -4.09486 4.21544 -3.50349
upperback 2.8979 5.90422 -0.133424
thorax 4.95831 2.82339 2.28917
lowerneck -7.75496 0.796068 -3.87808
upperneck 30.8491 -1.80941 2.81873
head 11.3005 -1.91044 1.30694
rclavicle -8.54774e-015 -4.77083e-015
rhumerus -6.84441 -21.6131 -83.4974
rradius 14.3825
rwrist 35.5327
rhand -9.51709 -35.2185
rfingers 7.12502
rthumb 16.4486 -64.5412
lclavicle -8.54774e-015 -4.77083e-015
lhumerus -44.2264 20.2275 58.2059
lradius 12.0306
lwrist -38.809
lhand -21.4713 -25.9571
lfingers 7.12502
lthumb 4.91929 3.96578
rfemur 0.479105 10.3602 8.92234
rtibia 11.4293
rfoot -21.771 -6.39598
rtoes -31.7801
lfemur -26.603 -8.19883 -5.79927
ltibia 12.5444
lfoot -11.9459 8.46474
ltoes -58.2805
279
root 11.1678 17.0834 10.6385 -170.732 5.03882 173.997
lowerback -4.16859 4.36409 -3.86144
upperback 2.75918 6.13783 -0.408589
thorax 4.83542 2.93672 2.21768
lowerneck -7.91506 0.901256 -3.90224
upperneck 31.0764 -1.85123 3.34618
head 11.4268 -1.88393 1.49883
rclavicle 1.90833e-014 -1.66979e-014
rhumerus -6.96819 -21.113 -83.8343
rradius 14.9345
rwrist 35.2827
rhand -6.35952 -36.3256
rfingers 7.12502
rthumb 19.4867 -65.3691
lclavicle 1.90833e-014 -1.66979e-014
lhumerus -44.0114 19.6215 58.3414
lradius 12.1848
lwrist -38.2873
lhand -20.9971 -25.0992
lfingers 7.12502
lthumb 5.37716 4.8126
rfemur 0.936011 10.6112 9.0437
rtibia 11.5789
rfoot -22.036 -6.17393
rtoes -32.2231
lfemur -26.3654 -7.84097 -5.70466
ltibia 12.6666
lfoot -11.765 8.65555
ltoes -57.9708
280
root 11.0646 17.0454 10.4738 -170.76 5.44854 174.503
lowerback -4.27169 4.48075 -4.19372
upperback 2.63632 6.3326 -0.694351
thorax 4.75183 3.03223 2.12202
lowerneck -8.05022 0.924556 -3.96242
upperneck 31.2069 -2.03237 3.98711
head 11.5189 -1.90719 1.72414
rclavicle -6.36111e-014 5.00937e-014
rhumerus -7.18822 -20.5517 -84.084
rradius 15.4823
rwrist 34.1438
rhand -8.21512 -34.7566
rfingers 7.12502
rthumb 17.7018 -63.9709
lclavicle -6.36111e-014 5.00937e-014
lhumerus -43.6572 19.4184 58.0898
lradius 12.0919
lwrist -38.5335
lhand -20.5095 -24.4838
lfingers 7.12502
lthumb 5.84792 5.41548
rfemur 1.40334 10.8667 9.23442
rtibia 11.7538
rfoot -22.1997 -6.01487
rtoes -32.7902
lfemur -26.0183 -7.46473 -5.66223
ltibia 12.7239
lfoot -11.6418 8.72183
ltoes -57.9462
281
root 10.9537 17.0073 10.3077 -170.642 5.79947 175.136
lowerback -4.40733 4.52517 -4.47088
upperback 2.4576 6.42395 -0.937401
thorax 4.63525 3.07896 2.03295
lowerneck -8.0637 0.924934 -4.27706
upperneck 31.1908 -2.24375 4.80615
head 11.5348 -1.95208 2.05753
rclavicle 1.92821e-014 -4.77083e-015
rhumerus -7.48651 -19.8415 -84.2281
rradius 15.996
rwrist 32.2132
rhand -8.07797 -35.2771
rfingers 7.12502
rthumb 17.8338 -64.4794
lclavicle 1.92821e-014 -4.77083e-015
lhumerus -43.3244 20.0112 57.2148
lradius 11.7339
lwrist -39.619
lhand -20.1624 -23.9371
lfingers 7.12502
lthumb 6.18302 5.95272
rfemur 1.7122 11.2636 9.51172
rtibia 12.0186
rfoot -22.4178 -5.67862
rtoes -32.8654
lfemur -25.762 -7.29935 -5.45316
ltibia 12.8288
lfoot -11.7797 8.9313
ltoes -57.9261
282
root 10.835 16.9663 10.1347 -170.331 6.18181 175.888
lowerback -4.72284 4.51732 -4.76078
upperback 2.19719 6.44877 -1.13041
thorax 4.53183 3.09106 2.00976
lowerneck -8.20257 0.997929 -4.42635
upperneck 31.3423 -2.36355 5.46884
head 11.6369 -1.96226 2.31587
rclavicle -1.44119e-015 3.97569e-016
rhumerus -7.911 -19.1404 -84.251
rradius 16.5488
rwrist 30.1923
rhand -7.0718 -35.7126
rfingers 7.12502
rthumb 18.8018 -64.8239
lclavicle -1.44119e-015 3.97569e-016
lhumerus -43.2453 21.3711 55.6921
lradius 11.2829
lwrist -41.4289
lhand -20.3292 -23.7633
lfingers 7.12502
lthumb 6.02199 6.13109
rfemur 1.88329 11.6959 9.79337
rtibia 12.2746
rfoot -22.7402 -4.95269
rtoes -32.7518
lfemur -25.5567 -7.33065 -5.11092
ltibia 12.8954
lfoot -12.1138 9.23656
ltoes -57.8824
